<?xml version="1.0" standalone="no"?>
<!DOCTYPE svg PUBLIC "-//W3C//DTD SVG 20010904//EN"
 "http://www.w3.org/TR/2001/REC-SVG-20010904/DTD/svg10.dtd">
<svg version="1.0" xmlns="http://www.w3.org/2000/svg"
 width="550.000000pt" height="550.000000pt" viewBox="0 0 550.000000 550.000000"
 preserveAspectRatio="xMidYMid meet">
<metadata>
Created by potrace 1.11, written by Peter Selinger 2001-2013
</metadata>
<g transform="translate(0.000000,550.000000) scale(0.100000,-0.100000)"
fill="#000000" stroke="none">
<path d="M2667 5426 c-89 -33 -144 -92 -169 -182 -14 -49 -15 -63 -5 -120 14
-87 94 -174 183 -200 127 -37 262 27 314 149 56 128 2 275 -124 339 -51 26
-148 33 -199 14z"/>
<path d="M1867 5254 c-179 -62 -242 -280 -121 -423 70 -84 201 -114 302 -71
172 74 214 306 79 433 -67 62 -179 89 -260 61z"/>
<path d="M3519 5250 c-24 -10 -63 -34 -86 -54 -148 -129 -100 -377 86 -441
163 -55 335 53 348 219 3 34 0 80 -6 103 -37 137 -209 224 -342 173z"/>
<path d="M1128 4860 c-42 -12 -93 -47 -126 -84 -120 -137 -55 -368 118 -420
101 -31 205 -2 275 76 72 80 90 185 47 281 -52 117 -194 183 -314 147z"/>
<path d="M4203 4852 c-172 -69 -223 -293 -96 -425 52 -53 105 -78 172 -82 149
-8 267 94 279 240 8 109 -47 208 -142 258 -54 27 -155 32 -213 9z"/>
<path d="M2258 4567 c-185 -69 -231 -315 -82 -446 177 -156 452 -15 432 221
-8 92 -64 175 -147 214 -46 23 -155 28 -203 11z"/>
<path d="M3044 4557 c-62 -33 -78 -47 -114 -100 -59 -88 -53 -211 15 -300 99
-129 295 -135 404 -11 110 125 77 317 -68 402 -63 37 -176 41 -237 9z"/>
<path d="M594 4164 c-177 -65 -228 -303 -93 -435 76 -75 208 -96 299 -50 190
98 199 359 15 467 -56 32 -160 41 -221 18z"/>
<path d="M1515 4164 c-99 -35 -168 -128 -171 -231 -3 -83 19 -144 73 -199 55
-57 102 -77 188 -77 110 -1 191 52 240 156 28 59 27 154 -1 213 -57 120 -205
182 -329 138z"/>
<path d="M3813 4166 c-61 -20 -101 -52 -139 -112 -88 -138 -25 -325 129 -383
127 -47 268 7 327 125 63 127 18 277 -105 349 -53 32 -151 41 -212 21z"/>
<path d="M4786 4164 c-96 -30 -176 -143 -176 -249 0 -93 56 -183 142 -230 45
-25 64 -30 123 -29 104 1 181 46 231 136 57 106 30 249 -62 324 -75 62 -160
78 -258 48z"/>
<path d="M2274 3706 c-182 -57 -247 -267 -130 -421 32 -41 114 -85 174 -92
107 -12 222 52 268 151 66 142 -8 311 -157 359 -60 20 -99 20 -155 3z"/>
<path d="M3070 3705 c-104 -33 -180 -139 -180 -249 1 -198 202 -323 377 -236
196 98 196 371 1 471 -51 26 -141 33 -198 14z"/>
<path d="M273 3425 c-61 -18 -105 -49 -140 -97 -42 -59 -56 -109 -50 -177 8
-98 66 -179 157 -220 67 -30 170 -24 232 12 153 89 180 291 57 416 -64 64
-171 92 -256 66z"/>
<path d="M1123 3421 c-65 -22 -95 -42 -129 -86 -59 -77 -71 -184 -30 -270 31
-66 65 -101 128 -130 165 -77 355 35 372 218 16 182 -168 327 -341 268z"/>
<path d="M4245 3430 c-56 -12 -105 -42 -145 -87 -148 -168 -27 -433 199 -433
61 0 138 30 179 69 98 95 108 252 23 360 -56 71 -169 111 -256 91z"/>
<path d="M5097 3428 c-149 -32 -238 -190 -190 -338 61 -189 307 -242 442 -95
94 102 92 262 -5 360 -67 66 -157 93 -247 73z"/>
<path d="M1881 2964 c-161 -42 -244 -219 -172 -367 101 -208 401 -194 482 22
75 199 -104 397 -310 345z"/>
<path d="M2701 2969 c-168 -31 -262 -215 -188 -371 64 -134 223 -189 356 -121
191 98 190 375 -2 467 -61 29 -105 35 -166 25z"/>
<path d="M3491 2963 c-119 -30 -192 -121 -197 -244 -6 -128 76 -236 200 -264
62 -14 106 -10 168 17 117 50 179 187 143 313 -24 85 -110 166 -194 182 -53
10 -69 10 -120 -4z"/>
<path d="M240 2549 c-167 -75 -212 -290 -89 -418 159 -165 434 -73 454 152 18
198 -187 347 -365 266z"/>
<path d="M1115 2558 c-35 -12 -85 -48 -118 -84 -63 -67 -74 -211 -24 -296 91
-155 304 -178 423 -46 48 54 66 101 67 173 1 106 -67 210 -159 246 -47 18
-147 22 -189 7z"/>
<path d="M4206 2555 c-56 -20 -105 -63 -139 -124 -79 -139 -6 -323 148 -370
75 -23 133 -19 202 15 97 47 150 144 140 254 -9 102 -58 172 -152 216 -58 27
-138 31 -199 9z"/>
<path d="M5043 2544 c-97 -47 -154 -141 -149 -246 10 -208 239 -322 412 -206
19 13 51 48 72 78 35 52 37 59 36 135 0 62 -5 89 -21 120 -68 128 -222 181
-350 119z"/>
<path d="M2241 2267 c-168 -80 -208 -299 -78 -429 101 -100 286 -96 378 10 53
60 72 115 67 191 -7 101 -57 179 -143 224 -58 30 -165 32 -224 4z"/>
<path d="M3080 2281 c-69 -21 -131 -74 -166 -141 -14 -26 -19 -57 -19 -115 0
-69 4 -86 27 -127 105 -177 349 -180 457 -4 28 44 35 75 33 148 -1 94 -53 172
-145 218 -62 31 -129 38 -187 21z"/>
<path d="M1538 1820 c-205 -51 -265 -324 -101 -459 128 -105 317 -67 398 80
38 70 41 170 7 236 -59 114 -184 172 -304 143z"/>
<path d="M3824 1820 c-61 -19 -126 -73 -158 -130 -27 -47 -31 -65 -31 -125 1
-120 68 -213 183 -250 165 -54 342 76 342 250 0 95 -71 204 -156 240 -48 20
-139 27 -180 15z"/>
<path d="M645 1770 c-178 -28 -275 -226 -189 -387 28 -54 54 -77 120 -109 62
-29 103 -34 170 -19 124 28 205 136 200 267 -3 76 -28 129 -86 182 -43 39 -76
55 -125 62 -16 3 -34 6 -40 8 -5 1 -28 -1 -50 -4z"/>
<path d="M4822 1769 c-76 -14 -143 -67 -185 -144 -31 -57 -30 -174 1 -230 27
-49 48 -74 87 -101 106 -74 258 -55 345 43 165 187 -1 477 -248 432z"/>
<path d="M2319 1426 c-2 -3 -16 -6 -29 -8 -70 -11 -156 -83 -187 -157 -26 -61
-22 -148 11 -214 80 -164 296 -198 423 -67 121 125 85 340 -70 414 -48 23
-138 42 -148 32z"/>
<path d="M3099 1420 c-88 -16 -177 -98 -200 -184 -14 -53 -7 -141 15 -187 99
-206 403 -193 483 21 60 160 -51 339 -219 353 -24 2 -59 1 -79 -3z"/>
<path d="M1120 1125 c-178 -57 -238 -287 -112 -427 51 -56 104 -81 183 -84
238 -10 364 274 197 445 -67 68 -176 95 -268 66z"/>
<path d="M4230 1130 c-70 -19 -136 -75 -168 -142 -62 -127 -13 -275 112 -345
44 -24 62 -28 126 -27 85 0 134 20 186 76 55 58 69 95 69 183 0 69 -4 86 -27
126 -32 54 -75 93 -127 116 -39 17 -131 24 -171 13z"/>
<path d="M1857 666 c-186 -68 -234 -307 -87 -439 55 -51 102 -69 175 -70 152
-2 268 119 261 272 -4 103 -56 182 -151 228 -49 24 -145 28 -198 9z"/>
<path d="M3463 667 c-49 -18 -121 -83 -144 -130 -12 -23 -24 -69 -27 -103 -4
-51 0 -71 20 -116 43 -93 119 -151 211 -161 127 -14 255 72 284 191 30 121
-17 236 -124 299 -53 31 -166 41 -220 20z"/>
<path d="M2659 551 c-61 -20 -142 -102 -157 -161 -19 -74 -20 -92 -6 -148 34
-131 150 -212 281 -198 113 12 198 86 227 197 25 97 -5 191 -82 259 -74 66
-166 84 -263 51z"/>
</g>
</svg>
